<svg 
 xmlns="http://www.w3.org/2000/svg"
 xmlns:xlink="http://www.w3.org/1999/xlink"
 viewBox="0 0 100 90">
<path fill-rule="evenodd"  fill="#fff"
 d="M88.536,0.130 C93.682,0.043 96.700,2.433 98.580,5.642 C99.832,7.779 99.901,10.862 99.901,14.274 C99.901,17.599 99.901,20.925 99.901,24.250 C99.901,34.901 99.901,45.554 99.901,56.205 C99.901,59.598 99.901,62.993 99.901,66.386 C99.901,68.025 100.164,69.814 99.878,71.351 C98.813,77.066 96.043,80.768 91.200,82.671 C89.772,83.232 88.100,83.302 86.440,83.650 C83.366,84.174 80.290,84.698 77.216,85.222 C70.946,86.284 64.673,87.347 58.403,88.410 C56.482,88.737 54.561,89.063 52.641,89.390 C51.869,89.557 50.678,90.021 49.703,89.845 C41.906,88.509 34.108,87.173 26.312,85.837 C22.235,85.146 18.157,84.455 14.081,83.764 C13.003,83.589 11.925,83.415 10.847,83.240 C8.515,82.654 6.981,81.926 5.312,80.735 C4.813,80.378 4.280,80.001 3.900,79.528 C2.077,77.256 0.928,75.491 0.188,72.080 C-0.006,71.187 0.051,70.113 0.051,69.073 C0.051,67.479 0.051,65.885 0.051,64.290 C0.051,59.144 0.051,53.995 0.051,48.848 C0.051,38.441 0.051,28.030 0.051,17.622 C0.051,15.884 0.051,14.145 0.051,12.407 C0.051,11.608 -0.060,10.751 0.074,9.992 C0.541,7.350 1.489,4.551 3.194,3.182 C4.945,1.777 6.441,0.871 9.070,0.290 C10.720,-0.075 12.710,0.285 14.149,0.586 C16.343,0.958 18.538,1.330 20.732,1.702 C25.484,2.507 30.237,3.312 34.989,4.116 C39.916,4.951 44.844,5.787 49.771,6.622 C57.582,5.301 65.396,3.979 73.207,2.659 C76.927,2.028 80.648,1.398 84.368,0.768 C85.408,0.594 86.448,0.419 87.488,0.244 C87.837,0.206 88.186,0.168 88.536,0.130 ZM88.763,10.402 C87.602,10.585 86.440,10.767 85.279,10.949 C82.409,11.435 79.539,11.921 76.669,12.407 C69.480,13.629 62.289,14.851 55.101,16.074 C55.101,36.934 55.101,57.801 55.101,78.662 C63.345,77.258 71.591,75.853 79.835,74.449 C82.363,74.023 84.892,73.598 87.420,73.173 C88.038,72.934 88.609,72.515 88.991,72.034 C89.914,70.876 89.652,69.162 89.652,67.160 C89.652,63.661 89.652,60.160 89.652,56.660 C89.652,46.154 89.652,35.645 89.652,25.138 C89.652,21.927 89.652,18.715 89.652,15.504 C89.653,13.863 89.892,11.918 89.515,10.493 C89.326,10.405 89.059,10.398 88.763,10.402 ZM10.847,10.425 C10.703,10.448 10.558,10.471 10.414,10.493 C10.121,11.113 10.300,13.564 10.300,14.502 C10.300,17.690 10.300,20.880 10.300,24.068 C10.300,35.394 10.300,46.724 10.300,58.050 C10.300,61.261 10.300,64.473 10.300,67.684 C10.300,69.799 10.056,71.396 11.302,72.399 C12.587,73.432 14.454,73.453 16.450,73.834 C18.021,74.099 19.593,74.365 21.164,74.631 C29.059,75.974 36.956,77.318 44.851,78.662 C44.851,57.809 44.851,36.950 44.851,16.096 C36.827,14.738 28.801,13.378 20.777,12.019 C18.986,11.716 17.193,11.412 15.402,11.108 C13.998,10.804 12.415,10.431 10.847,10.425 Z"/>
</svg>