<svg 
 xmlns="http://www.w3.org/2000/svg"
 xmlns:xlink="http://www.w3.org/1999/xlink"
 viewBox="0 0 100 90">
<path fill-rule="evenodd"  fill="#fff"
 d="M21.700,11.760 C24.293,11.729 25.400,13.160 26.680,14.440 C27.953,15.713 29.227,16.987 30.500,18.260 C36.999,24.753 43.501,31.247 50.000,37.740 C58.173,29.567 66.347,21.393 74.520,13.220 C74.892,13.041 75.206,12.641 75.580,12.420 C76.243,12.028 76.968,11.912 77.900,11.760 C78.787,11.615 79.677,11.993 80.240,12.240 C82.178,13.090 83.917,15.560 83.000,18.460 C82.818,19.034 82.511,19.580 82.180,20.020 C81.565,20.836 80.720,21.520 79.1000,22.240 C78.553,23.687 77.107,25.133 75.660,26.580 C71.300,30.946 66.940,35.314 62.580,39.680 C60.807,41.453 59.033,43.227 57.260,45.000 C65.426,53.166 73.594,61.334 81.760,69.500 C81.993,69.793 82.227,70.087 82.460,70.380 C82.912,71.101 83.070,71.859 83.240,72.900 C83.385,73.787 83.007,74.677 82.760,75.240 C81.911,77.175 79.439,78.921 76.540,78.000 C75.964,77.817 75.421,77.512 74.980,77.180 C74.164,76.565 73.480,75.720 72.760,74.1000 C71.313,73.553 69.867,72.107 68.420,70.660 C64.054,66.300 59.686,61.940 55.320,57.580 C53.547,55.807 51.773,54.033 50.000,52.260 C41.834,60.426 33.666,68.594 25.500,76.760 C25.152,76.928 24.866,77.312 24.520,77.520 C23.817,77.942 23.081,78.077 22.080,78.240 C21.172,78.388 19.998,77.924 19.480,77.620 C17.732,76.595 16.087,74.414 16.1000,71.540 C17.183,70.964 17.488,70.421 17.820,69.980 C18.435,69.164 19.280,68.480 19.1000,67.760 C21.447,66.313 22.893,64.867 24.340,63.420 C28.700,59.054 33.060,54.686 37.420,50.320 C39.193,48.547 40.967,46.773 42.740,45.000 C36.327,38.581 29.913,32.159 23.500,25.740 C22.233,24.473 20.967,23.207 19.700,21.940 C19.013,21.253 18.225,20.604 17.660,19.800 C17.338,19.342 17.093,18.777 16.920,18.180 C16.094,15.333 18.061,12.934 19.880,12.160 C20.244,12.005 20.658,11.902 21.080,11.820 C21.287,11.800 21.493,11.780 21.700,11.760 Z"/>
</svg>